<svg width="32" height="32" viewBox="0 0 32 32" fill="none" xmlns="http://www.w3.org/2000/svg">
<path opacity="0.2" d="M16 32C24.8366 32 32 24.8366 32 16C32 7.16344 24.8366 0 16 0C7.16344 0 0 7.16344 0 16C0 24.8366 7.16344 32 16 32Z" fill="#505050"/>
<path fill-rule="evenodd" clip-rule="evenodd" d="M9.86103 14.7754C9.0497 15.1744 8.24102 15.5761 7.38477 16.0015C7.41095 16.0115 7.43424 16.0206 7.45545 16.0288C7.51772 16.053 7.56209 16.0703 7.6094 16.086L7.6099 16.0862C9.20596 16.6305 10.802 17.1747 12.4007 17.7111C12.5751 17.7692 12.6756 17.867 12.7548 18.0282C13.6015 19.7612 14.4544 21.49 15.3081 23.2203C15.4137 23.4343 15.5193 23.6484 15.6249 23.8625C15.7412 24.1003 15.8601 24.3381 16.0002 24.6155C16.0212 24.5588 16.0363 24.521 16.0485 24.4905C16.0562 24.4712 16.0627 24.4549 16.0689 24.4385C16.1723 24.1348 16.2758 23.8312 16.3793 23.5276C16.818 22.2412 17.2565 20.9555 17.6862 19.6664C17.7576 19.4524 17.8686 19.3256 18.0721 19.2251C19.5273 18.5144 20.9798 17.7972 22.4326 17.0798C23.0377 16.781 23.6428 16.4822 24.2482 16.1838C24.3147 16.1521 24.3802 16.1186 24.4539 16.0808C24.5033 16.0556 24.5562 16.0285 24.6155 15.9988C24.5801 15.9862 24.55 15.9754 24.5235 15.9659C24.4671 15.9457 24.427 15.9313 24.3856 15.9169C23.8535 15.7355 23.3212 15.5546 22.7888 15.3738C21.7241 15.0121 20.6593 14.6503 19.5969 14.2839C19.4807 14.2443 19.3432 14.1571 19.293 14.0541C18.424 12.3077 17.5621 10.5596 16.7001 8.8112C16.5082 8.42205 16.3163 8.03288 16.1244 7.64372C16.0874 7.56709 16.0477 7.49046 15.9922 7.38477C15.9755 7.42904 15.9614 7.46519 15.9491 7.49689C15.9342 7.53518 15.9219 7.56699 15.9103 7.5988C15.8121 7.88824 15.7137 8.17777 15.6154 8.46737C15.1687 9.78255 14.7215 11.0992 14.2797 12.4158C14.2269 12.5743 14.1423 12.6695 13.9943 12.7408C12.615 13.4172 11.2383 14.0961 9.86165 14.7751L9.86103 14.7754ZM18.746 14.3104C18.1218 13.0435 17.5028 11.7897 16.878 10.5241L16.09 8.9279C15.3706 11.0545 14.6643 13.1403 13.9505 15.2482L13.368 16.9686C14.3083 16.5032 15.2346 16.0457 16.157 15.59C17.0206 15.1634 17.8808 14.7384 18.746 14.3104ZM10.9702 16.5998L10.9745 16.6012L10.9844 16.6046L10.991 16.6069L10.9967 16.6088C11.5532 16.7976 12.1072 16.9856 12.665 17.1747C12.8654 16.5822 13.0647 15.9946 13.265 15.4037L13.2651 15.4035L13.2654 15.4028L13.266 15.401C13.4853 14.7542 13.7059 14.1035 13.9309 13.4384C12.8199 13.9895 11.7341 14.5257 10.6433 15.0643L10.6429 15.0645C10.0758 15.3445 9.50739 15.6252 8.93342 15.909C9.62349 16.1428 10.2988 16.3719 10.9702 16.5998ZM13.4393 18.0784L14.1421 19.5034C14.7296 20.6947 15.3099 21.8713 15.9024 23.075C16.0806 22.5492 16.2557 22.0314 16.4296 21.517L16.4297 21.5167L16.4304 21.5146L16.4314 21.5117C16.6773 20.7846 16.921 20.064 17.1682 19.3361C15.9367 18.9213 14.7211 18.5117 13.4393 18.0784ZM13.7112 17.5261L13.7112 17.5261C13.6965 17.5173 13.6789 17.5069 13.656 17.4944C13.9063 17.3712 14.1402 17.2541 14.3689 17.1395L14.369 17.1394L14.5942 17.0267C14.9832 16.8351 15.3718 16.6432 15.7603 16.4514L15.7612 16.451L15.7622 16.4505C16.8353 15.9207 17.9074 15.3915 18.9838 14.8679C19.0869 14.8151 19.2455 14.8071 19.3564 14.8441C20.1994 15.1219 21.0382 15.4065 21.8768 15.691L21.8769 15.6911L21.8772 15.6912C22.2032 15.8018 22.5292 15.9124 22.8555 16.0226C22.8967 16.0356 22.9379 16.0522 23.0026 16.0782L23.0484 16.0966C22.6229 16.3106 22.2318 16.5062 21.8406 16.6991L21.2551 16.9879L21.255 16.9879C20.0739 17.5706 18.8939 18.1528 17.71 18.731C17.6149 18.7786 17.4748 18.805 17.377 18.7733C16.172 18.3743 14.9697 17.9648 13.7673 17.5553L13.767 17.5552C13.7494 17.5488 13.7337 17.5395 13.7112 17.5261Z" fill="white"/>
</svg>
