<svg width="32" height="32" viewBox="0 0 32 32" fill="none" xmlns="http://www.w3.org/2000/svg">
<path opacity="0.2" d="M16 32C24.8366 32 32 24.8366 32 16C32 7.16344 24.8366 0 16 0C7.16344 0 0 7.16344 0 16C0 24.8366 7.16344 32 16 32Z" fill="#5E4778"/>
<path fill-rule="evenodd" clip-rule="evenodd" d="M11.5964 22.9313L9.59985 20.988L8.61523 19.5305V9.3281L15.9996 7.87061L22.8922 9.3281V20.0164L21.4152 22.4455L17.9691 24.3888L15.9996 25.3605L11.5964 22.9313Z" fill="white"/>
<path fill-rule="evenodd" clip-rule="evenodd" d="M8.61523 8.95875L15.9923 7.38477L23.3844 8.95875V19.3959C23.3844 22.6509 16.4187 25.6766 16.1194 25.7912L15.9998 25.8374L15.8801 25.7912C14.4735 25.1265 13.1115 24.3624 11.81 23.4913C10.149 22.3681 8.61523 20.9241 8.61523 19.3959V8.95875ZM15.9923 24.882C17.9901 24.0797 22.7859 21.6729 22.7859 19.3959L22.7864 19.396L22.7789 9.51656L16.0223 8.40887H15.9624L9.20564 9.51656V19.4937C9.20564 19.4992 9.2047 19.5027 9.20382 19.5059C9.20221 19.5119 9.2008 19.5172 9.20564 19.5319C9.21342 19.5541 9.21846 19.5772 9.22065 19.6007C9.22065 19.6077 9.22218 19.6131 9.22386 19.619C9.22589 19.6262 9.22815 19.6342 9.22815 19.6468C9.22815 19.6594 9.23042 19.6721 9.23247 19.6834C9.23413 19.6927 9.23565 19.7011 9.23565 19.708C9.23499 19.7237 9.23754 19.7394 9.24315 19.7541C9.2469 19.7656 9.24878 19.7751 9.25065 19.7847C9.25253 19.7942 9.25441 19.8038 9.25816 19.8153C9.26144 19.8253 9.26329 19.8339 9.26496 19.8416C9.2671 19.8516 9.26895 19.8602 9.27316 19.8688C9.28158 19.8854 9.28668 19.9036 9.28817 19.9223C9.28817 19.9299 9.29192 19.9395 9.29567 19.949C9.29942 19.9586 9.30317 19.9681 9.30317 19.9758C9.30466 19.9945 9.30976 20.0127 9.31817 20.0293C9.327 20.0465 9.3345 20.0644 9.34059 20.0828C9.34433 20.0944 9.34809 20.1021 9.35187 20.1098C9.35557 20.1174 9.35929 20.125 9.36301 20.1363C9.36923 20.1572 9.37672 20.1776 9.38542 20.1975C9.3944 20.2121 9.40191 20.2275 9.40784 20.2436C9.4116 20.2551 9.41722 20.2647 9.42283 20.2743C9.42843 20.2839 9.43401 20.2934 9.43776 20.3048L9.46017 20.3509C9.46709 20.3727 9.47717 20.3934 9.49009 20.4121L9.52001 20.4582C9.52907 20.4673 9.53536 20.4794 9.54223 20.4926C9.54673 20.5012 9.55149 20.5103 9.55743 20.5194L9.57984 20.5655L9.62504 20.6343L9.64745 20.6725L9.69265 20.7412L9.72257 20.7794L9.7749 20.8481L9.80482 20.8863L9.85715 20.9551L9.88707 20.9856L9.94691 21.062L9.96932 21.0925L10.0367 21.1689L10.0591 21.1995L10.1264 21.2759L10.1488 21.3064L10.2237 21.3828L10.2461 21.4057L10.3284 21.4821L10.3508 21.5049L10.4332 21.589L10.4556 21.6119L10.5379 21.6959L10.5604 21.7112L10.6501 21.7953L10.6651 21.8106L10.7624 21.8946L10.7774 21.91L10.8821 21.994L10.8971 22.0017L11.0094 22.0857L11.0244 22.0934L11.1441 22.1851L11.1516 22.1927L11.2714 22.2837L11.2789 22.2914L11.3986 22.3831L11.4061 22.3907L11.5333 22.4824L11.668 22.5818L11.8026 22.6735C12.9399 23.4529 14.2342 24.1176 15.2293 24.5684H15.2368L15.3491 24.6145H15.3564L15.4536 24.6527L15.4686 24.6604L15.5584 24.6986L15.5808 24.7062L15.6632 24.7444L15.6856 24.7521L15.7529 24.7826L15.7903 24.7979L15.8577 24.8285L15.8951 24.8438L15.9923 24.882Z" fill="#5E4778"/>
<path fill-rule="evenodd" clip-rule="evenodd" d="M15.9923 9.17285L10.8749 10.0134L9.81982 10.1815V19.1287C9.81982 21.1993 14.1817 23.3922 15.9923 24.1181C17.0473 23.6979 18.9626 22.781 20.3768 21.6807C20.4116 21.6528 20.4473 21.6248 20.483 21.5968L20.4832 21.5967C20.5546 21.5407 20.6261 21.4846 20.691 21.4286C21.1773 21.0237 21.5813 20.5958 21.8433 20.1603C22.0453 19.8241 22.165 19.4802 22.165 19.1362V10.1815L15.9923 9.17285ZM13.0146 13.9177H16.6133V14.6818H13.0146V13.9177ZM17.0922 17.2569C18.7981 17.2569 20.0326 16.0877 20.0326 14.2769H20.0324C20.0324 12.466 18.7979 11.3352 17.0845 11.3352H13.6281V12.2062L15.9923 12.1986H16.9802C18.2372 12.1986 19.0677 12.9627 19.0677 14.2769C19.0677 15.6063 18.2372 16.3933 16.9653 16.3933H13.7927V21.0773H14.7279V17.2569H17.0922Z" fill="#5E4778"/>
<path fill-rule="evenodd" clip-rule="evenodd" d="M15.9924 7.38477V8.40887H16.0223L22.7789 9.51656V19.388C22.7789 21.6649 17.9831 24.0717 15.9854 24.8741V25.8291L16.105 25.783C16.4043 25.6684 23.37 22.6427 23.37 19.3877V8.95875L15.9924 7.38477Z" fill="#5E4778"/>
<path fill-rule="evenodd" clip-rule="evenodd" d="M14.728 17.2491H17.0846V17.2492C18.798 17.2492 20.025 16.0799 20.025 14.2691C20.025 12.4737 18.7905 11.3352 17.0846 11.3352H13.6282V12.2062L15.9924 12.1986H16.9805C18.2375 12.1986 19.0679 12.9627 19.0679 14.2769C19.0679 15.6063 18.2375 16.3933 16.9655 16.3933H13.793V16.8212C11.8252 14.6894 11.1144 11.977 10.875 10.0134L15.9999 9.17285L22.1725 10.1815V19.1284C22.1725 19.4725 22.0528 19.8163 21.8508 20.1525C19.4042 20.0379 17.4888 19.4496 15.9999 18.5785C15.5539 18.3203 15.1286 18.0264 14.728 17.6998V17.2491ZM16.6055 13.9177H15.9924H13.0146V14.6818H16.6055V13.9177Z" fill="#5E4778"/>
<path fill-rule="evenodd" clip-rule="evenodd" d="M15.9026 24.8438L15.8652 24.8285L15.7978 24.8056L15.7604 24.7903L15.6931 24.7597L15.6707 24.7521L15.5883 24.7139L15.5659 24.7062L15.4761 24.668L15.4611 24.6604L15.3639 24.6142H15.3491L15.2368 24.5681H15.2293C14.2417 24.1173 12.9473 23.4526 11.8101 22.6656L11.6754 22.5739L11.5407 22.4669L11.4135 22.3752L11.406 22.3676L11.2863 22.2759L11.2788 22.2682L11.1592 22.1765L11.1517 22.1689L11.032 22.0771L11.017 22.0695L10.9047 21.9854L10.8897 21.9778L10.785 21.8937L10.7701 21.8791L10.6728 21.795L10.6578 21.7797L10.568 21.6956L10.5456 21.6803L10.4633 21.5963L10.4409 21.5734L10.3585 21.4893L10.3361 21.4665L10.2538 21.3901L10.2314 21.3672L10.1565 21.2908L10.1341 21.2603L10.0668 21.1839L10.0443 21.1533L9.977 21.0769L9.95459 21.0464L9.88725 20.9852L9.85733 20.9547L9.805 20.886L9.77508 20.8478L9.72275 20.779L9.69283 20.7408L9.64763 20.6721L9.62522 20.6339L9.58002 20.5652L9.55761 20.527C9.5426 20.5041 9.53519 20.4808 9.52019 20.4658L9.49027 20.4197L9.46035 20.3585L9.43794 20.3124C9.43043 20.2895 9.41552 20.2742 9.40802 20.2512C9.40209 20.2351 9.39458 20.2196 9.3856 20.2051C9.3769 20.1852 9.36941 20.1647 9.36319 20.1439C9.35568 20.121 9.34818 20.1134 9.34077 20.0904C9.33468 20.072 9.32718 20.0541 9.31835 20.0369C9.30897 20.0206 9.30381 20.0022 9.30335 19.9834C9.30335 19.9605 9.28835 19.9372 9.28835 19.9222C9.28686 19.9035 9.28176 19.8853 9.27334 19.8687C9.26584 19.8534 9.26584 19.8381 9.25834 19.8152C9.25084 19.7922 9.25084 19.777 9.24333 19.754C9.23772 19.7393 9.23517 19.7236 9.23583 19.7079C9.23583 19.6926 9.22833 19.6697 9.22833 19.6467C9.22833 19.6237 9.22083 19.6162 9.22083 19.6006C9.21864 19.5771 9.2136 19.554 9.20582 19.5318C9.19832 19.509 9.20582 19.509 9.20582 19.4936V9.51656L15.9624 8.40887H15.9923V7.38477L8.61523 8.95875V19.3959C8.61523 20.9241 10.149 22.3681 11.81 23.4913C13.1115 24.3624 14.4735 25.1265 15.8801 25.7912L15.9998 25.8374V24.882L15.9025 24.8438" fill="#3D3144"/>
<path fill-rule="evenodd" clip-rule="evenodd" d="M15.9923 18.5784C15.5463 18.3201 15.121 18.0263 14.7204 17.6996V21.0764H13.7854V16.821C11.8175 14.6816 11.1142 11.9691 10.8749 10.0132L9.81982 10.1813V19.1285C9.81982 21.1992 14.1817 23.392 15.9923 24.1179C17.0473 23.6977 18.9626 22.7808 20.3767 21.6806C20.4815 21.5965 20.5937 21.5125 20.691 21.4284C21.1773 21.0235 21.5813 20.5956 21.8433 20.1601C19.3967 20.0302 17.4888 19.4419 15.9924 18.5785" fill="#3D3144"/>
</svg>
