<svg width="32" height="32" viewBox="0 0 32 32" fill="none" xmlns="http://www.w3.org/2000/svg">
<path opacity="0.2" d="M31.9132 16.0001C31.9132 24.7901 24.7877 31.9159 15.9977 31.9159C7.20769 31.9159 0.0820312 24.7901 0.0820312 16.0001C0.0820312 7.21013 7.20769 0.0844727 15.9977 0.0844727C24.7876 0.0844727 31.9132 7.21013 31.9132 16.0001Z" fill="#3CC8C8"/>
<path fill-rule="evenodd" clip-rule="evenodd" d="M17.0688 8.12154C17.2826 7.71548 16.7914 7.22382 16.3891 7.43575C16.0617 7.5675 15.9787 8.0461 16.2334 8.28825C16.4739 8.54056 16.9447 8.45254 17.0688 8.12154ZM12.5901 8.30065C12.615 8.03156 12.3056 7.80536 12.0612 7.90699C11.721 7.99855 11.6832 8.53981 12.0133 8.66895C12.2624 8.80778 12.6161 8.59277 12.5901 8.30065ZM20.9252 8.67715C20.5432 8.63053 20.4827 8.02391 20.8505 7.90177C21.1357 7.76126 21.3974 8.02475 21.4391 8.29785C21.3793 8.53105 21.186 8.74457 20.9252 8.67715ZM13.9748 10.3748C14.0377 9.89534 13.4546 9.50653 13.0459 9.7676C12.6632 9.96527 12.6106 10.555 12.9579 10.8121C13.317 11.1393 13.9536 10.8589 13.9748 10.3748ZM19.2842 10.0446C19.4665 9.57002 20.2053 9.55566 20.4128 10.0177C20.6179 10.3772 20.3656 10.8224 20.0001 10.9447C19.5161 11.0359 19.0563 10.5074 19.2842 10.0446ZM16.6156 10.178C16.2318 10.2058 15.8639 10.5098 15.8679 10.9177C15.846 11.251 16.0818 11.5233 16.3617 11.6621C16.3899 11.6639 16.4185 11.6661 16.4472 11.6684C16.6053 11.6811 16.7696 11.6943 16.9119 11.6138C17.2796 11.4495 17.4604 10.9566 17.2568 10.5986C17.1476 10.3392 16.8702 10.2296 16.6156 10.178ZM9.43171 11.5121C9.80501 11.2803 10.3086 11.7034 10.1673 12.113C10.0895 12.4673 9.61799 12.6114 9.34845 12.3852C9.06073 12.1733 9.10633 11.6637 9.43171 11.5121ZM24.0541 11.9518C24.0919 11.5479 23.5692 11.263 23.2525 11.5114C22.9275 11.713 22.9629 12.251 23.3091 12.4083C23.6235 12.5979 24.0754 12.3201 24.0541 11.9518ZM17.6779 12.2447C18.2005 12.0551 18.8213 12.282 19.1192 12.7527C19.5121 13.3281 19.303 14.2043 18.6932 14.5345C18.0614 14.925 17.1388 14.594 16.9054 13.8813C16.6405 13.2432 17.0264 12.4447 17.6779 12.2447ZM16.25 12.8615C15.9702 12.263 15.1906 12.0313 14.6114 12.3075C13.994 12.586 13.71 13.4075 14.0299 14.0124C14.3151 14.6378 15.1466 14.8941 15.736 14.556C16.3246 14.2552 16.5792 13.4441 16.25 12.8615ZM11.541 13.3678C11.585 12.9908 11.937 12.7455 12.2922 12.7201C12.675 12.7668 12.9807 13.067 13.0223 13.4582C12.9972 13.8455 12.7009 14.2241 12.2946 14.2218C11.8475 14.2607 11.4556 13.8114 11.541 13.3678ZM21.6859 13.4577C21.7063 12.9251 21.069 12.5323 20.61 12.8021C20.1173 13.0368 20.0803 13.813 20.555 14.0886C21.012 14.4196 21.7174 14.022 21.6859 13.4577ZM13.3635 14.7909C13.9002 14.6417 14.514 14.8973 14.7773 15.3957C15.0656 15.8973 14.9478 16.5942 14.4999 16.9621C13.9254 17.5018 12.866 17.2851 12.5603 16.5486C12.209 15.8734 12.6357 14.9686 13.3635 14.7909ZM20.5951 15.3207C20.3145 14.8405 19.7015 14.6373 19.1797 14.7881C18.4465 14.9909 18.0583 15.9306 18.4441 16.5955C18.7624 17.2383 19.6583 17.4541 20.2367 17.043C20.7889 16.689 20.966 15.8699 20.5951 15.3207ZM9.91107 15.4147C10.3747 15.2375 10.8887 15.7544 10.7009 16.2187C10.5861 16.6417 9.9959 16.7981 9.69101 16.4862C9.33424 16.1933 9.46633 15.5417 9.91107 15.4147ZM23.1405 15.3353C22.7465 15.3568 22.4654 15.7005 22.4788 16.0885C22.5558 16.2695 22.6493 16.4584 22.8316 16.552C23.2206 16.7687 23.7707 16.4552 23.7417 15.9941C23.7668 15.6449 23.458 15.3862 23.1405 15.3353ZM7.63125 15.6425C7.9102 15.5195 8.25525 15.7637 8.19156 16.0766C8.1766 16.4309 7.65875 16.5671 7.46851 16.2711C7.30041 16.0655 7.40103 15.7485 7.63125 15.6425ZM25.8093 15.8275C25.7315 15.5957 25.4163 15.4941 25.2199 15.6354C24.893 15.8115 25.0211 16.4211 25.4171 16.3847C25.6992 16.4275 25.9413 16.0806 25.8093 15.8275ZM14.8786 17.3362C15.6127 17.1434 16.4017 17.7616 16.4063 18.5251C16.4542 19.2966 15.6771 19.9807 14.9257 19.8025C14.3449 19.708 13.8892 19.1429 13.908 18.5501C13.9064 17.9831 14.33 17.4561 14.8786 17.3362ZM19.3314 18.5347C19.3432 17.7536 18.5306 17.1242 17.7856 17.3346C17.3439 17.4455 16.9699 17.8132 16.8723 18.2654C16.679 18.944 17.1898 19.7123 17.8821 19.8028C18.6178 19.953 19.3707 19.2919 19.3314 18.5347ZM12.1807 17.8045C12.6963 17.7157 13.1796 18.2966 12.9705 18.7911C12.818 19.318 12.0589 19.4609 11.7233 19.0305C11.3296 18.6172 11.6235 17.8616 12.1807 17.8045ZM21.6945 18.5389C21.7298 18.0349 21.1655 17.6332 20.7058 17.8277C20.1502 18.0061 20.0576 18.8617 20.5667 19.1524C21.0163 19.4762 21.7129 19.0937 21.6945 18.5389ZM23.0887 20.2419C22.9087 19.903 23.2356 19.4538 23.6082 19.5165C23.7834 19.5135 23.9088 19.6451 24.0222 19.764L24.042 19.7848L24.0463 19.8191C24.0704 20.0124 24.098 20.234 23.9423 20.38C23.7181 20.6665 23.2104 20.5848 23.0887 20.2419ZM10.2011 20.1371C10.2794 19.7259 9.77833 19.3767 9.43014 19.6109C9.09848 19.7816 9.08667 20.3149 9.40725 20.5022C9.70596 20.7086 10.1595 20.5008 10.2011 20.1371ZM16.3089 20.3721C16.7648 20.1689 17.3455 20.5698 17.3023 21.0769C17.336 21.6373 16.6178 22.0253 16.1721 21.6888C15.6771 21.3999 15.7596 20.5498 16.3089 20.3721ZM13.9968 21.7118C14.0322 21.2729 13.5112 20.9165 13.1229 21.1229C12.8494 21.2261 12.7379 21.5309 12.7331 21.8045C12.8266 22.0556 13.0168 22.3197 13.3084 22.326C13.6604 22.3793 14.0086 22.0721 13.9968 21.7118ZM19.5765 21.1292C19.9758 20.88 20.5432 21.2379 20.5054 21.7073C20.5157 22.1978 19.8744 22.512 19.5027 22.1898C19.1428 21.9372 19.1867 21.33 19.5765 21.1292ZM21.0187 23.2714C20.7303 23.3333 20.5212 23.6603 20.6988 23.9317C20.8811 24.2469 21.4132 24.1341 21.447 23.7667C21.4957 23.4952 21.2506 23.319 21.0187 23.2714ZM11.7901 23.696C11.8608 23.4809 12.0321 23.2671 12.2828 23.323C12.6483 23.3492 12.7567 23.9056 12.4369 24.0771C12.1493 24.273 11.8156 24.0047 11.7901 23.696ZM16.8346 23.6388C16.5658 23.4698 16.158 23.6246 16.088 23.9428C15.9602 24.2643 16.2672 24.6529 16.6076 24.6126C16.7907 24.6174 16.9321 24.4857 17.0421 24.3539C17.0636 24.265 17.0853 24.1761 17.1097 24.0872L17.1082 24.0816C17.0629 23.9122 17.0103 23.715 16.8346 23.6388Z" fill="#3CC8C8"/>
</svg>
