<svg width="32" height="32" viewBox="0 0 32 32" fill="none" xmlns="http://www.w3.org/2000/svg">
<path opacity="0.2" d="M16 32C24.8366 32 32 24.8366 32 16C32 7.16344 24.8366 0 16 0C7.16344 0 0 7.16344 0 16C0 24.8366 7.16344 32 16 32Z" fill="#1276A7"/>
<path d="M17.9346 9.01258C16.9331 9.58267 16.3402 10.6122 16.3402 11.6978C16.3402 12.2679 16.5764 12.8424 16.8722 13.355C17.1084 13.8128 17.2243 14.6119 16.3997 15.0121C15.8113 15.3533 15.0416 15.1259 14.6895 14.5543C14.3374 14.0965 13.9244 13.6386 13.3924 13.2974C12.391 12.7273 11.2096 12.7273 10.2081 13.2974C9.20666 13.8675 8.61523 14.8995 8.61523 15.9854C8.61523 17.0713 9.20361 18.1005 10.2079 18.6721C11.2093 19.2422 12.3907 19.2422 13.3921 18.6721C13.9241 18.3856 14.3371 17.9307 14.6299 17.4152C14.8661 17.0149 15.5154 16.4995 16.34 16.9573C16.9284 17.2985 17.1052 18.0444 16.8125 18.6145C16.5168 19.13 16.34 19.7016 16.34 20.2717C16.34 21.3588 16.9284 22.3867 17.9344 22.9569C18.9358 23.527 20.1171 23.527 21.1186 22.9569C22.1201 22.3868 22.7131 21.3573 22.7131 20.2717C22.7131 19.1861 22.1232 18.1567 21.1188 17.585C20.5868 17.2985 19.9969 17.1848 19.3491 17.1848C18.8171 17.1848 18.1114 16.8436 18.1114 15.9854C18.1114 15.2987 18.6433 14.7861 19.3491 14.7861C19.9375 14.7861 20.5868 14.6724 21.1188 14.3859C22.1202 13.8158 22.7131 12.7863 22.7131 11.7007C22.7131 10.6152 22.1232 9.5857 21.1188 9.01554C20.6463 8.72901 20.0579 8.61529 19.5261 8.61529C18.9972 8.61234 18.4042 8.72901 17.9348 9.01258" fill="#1276A7"/>
</svg>
