<svg width="32" height="32" viewBox="0 0 32 32" fill="none" xmlns="http://www.w3.org/2000/svg">
<path opacity="0.2" d="M16 32C24.8366 32 32 24.8366 32 16C32 7.16344 24.8366 0 16 0C7.16344 0 0 7.16344 0 16C0 24.8366 7.16344 32 16 32Z" fill="#FEDB31"/>
<mask id="mask0_159_11795" style="mask-type:alpha" maskUnits="userSpaceOnUse" x="0" y="0" width="32" height="32">
<path d="M16 32C24.8366 32 32 24.8366 32 16C32 7.16344 24.8366 0 16 0C7.16344 0 0 7.16344 0 16C0 24.8366 7.16344 32 16 32Z" fill="white"/>
</mask>
<g mask="url(#mask0_159_11795)">
<path fill-rule="evenodd" clip-rule="evenodd" d="M20.6995 10.2562L21.7439 11.3005L17.5665 15.4779L16.5222 14.4336L20.6995 10.2562ZM14.4335 16.5222L15.4778 17.5666L11.3005 21.7439L10.2561 20.6996L14.4335 16.5222ZM14.4335 15.4779L15.4778 14.4336L11.3005 10.2562L10.2561 11.3005L14.4335 15.4779ZM21.7439 20.6996L20.6995 21.7439L16.5222 17.5666L17.5665 16.5222L21.7439 20.6996ZM16 17.0444L17.0443 16.0001L16 14.9557L14.9557 16.0001L16 17.0444Z" fill="#FEDB31"/>
</g>
</svg>
