<svg width="32" height="32" viewBox="0 0 32 32" fill="none" xmlns="http://www.w3.org/2000/svg">
<path opacity="0.2" d="M16 32C24.8366 32 32 24.8366 32 16C32 7.16344 24.8366 0 16 0C7.16344 0 0 7.16344 0 16C0 24.8366 7.16344 32 16 32Z" fill="#6DDFFF"/>
<mask id="mask0_159_11779" style="mask-type:alpha" maskUnits="userSpaceOnUse" x="0" y="0" width="32" height="32">
<path d="M16 32C24.8366 32 32 24.8366 32 16C32 7.16344 24.8366 0 16 0C7.16344 0 0 7.16344 0 16C0 24.8366 7.16344 32 16 32Z" fill="white"/>
</mask>
<g mask="url(#mask0_159_11779)">
<path fill-rule="evenodd" clip-rule="evenodd" d="M20.2528 15.4579C19.3637 16.5337 18.498 17.5944 18.498 17.5944C18.498 17.5944 19.2591 18.8049 18.9488 20.5159C18.6386 22.2266 17.6558 23.3848 17.6558 23.3848C17.6558 23.3848 17.5741 22.3787 17.3514 21.8172C17.1294 21.2556 16.252 20.1443 16.252 20.1443C16.252 20.1443 15.8545 20.628 15.3943 20.6514C15.2204 20.66 14.9409 20.5244 14.6146 20.3188C14.576 20.377 14.5363 20.4351 14.4953 20.4926C13.2146 22.3021 11.4303 23.241 10.5103 22.5901C9.59014 21.9385 9.88246 19.944 11.1636 18.1344C11.2177 18.0576 11.2729 17.9833 11.329 17.91C10.9698 17.6074 10.7088 17.3292 10.6916 17.1341C10.6526 16.6895 10.8552 16.3856 10.8552 16.3856C10.8552 16.3856 9.99753 16.0271 9.13958 16.0034C8.28189 15.9798 7.38477 16.2372 7.38477 16.2372C7.38477 16.2372 8.21148 14.8334 9.56078 14.0848C10.91 13.3361 12.6179 13.3673 12.6179 13.3673C12.6179 13.3673 13.3976 12.0182 13.7721 11.3866L13.8151 11.3138C14.2038 10.6539 14.9765 9.34247 16.8994 8.3061C18.8956 7.22997 21.2821 7.39367 21.2821 7.39367C21.2821 7.39367 21.9215 9.20273 21.9215 11.0746C21.9215 12.9464 21.1418 14.3814 20.2528 15.4579ZM17.6787 10.4732C16.6233 10.4732 15.7677 11.3286 15.7677 12.3839C15.7677 13.4391 16.6233 14.2946 17.6787 14.2946C18.7336 14.2946 19.5892 13.4391 19.5892 12.3839C19.5893 11.3286 18.7338 10.4732 17.6787 10.4732ZM11.4236 21.2732C10.7793 20.7975 10.9451 19.4807 11.7933 18.3323C11.7949 18.3301 11.7966 18.328 11.7983 18.3259C11.8001 18.3235 11.802 18.3212 11.8038 18.3186C12.0338 18.4906 12.2731 18.6618 12.498 18.8226C12.6083 18.9015 12.7152 18.9779 12.8157 19.0507C12.9786 19.1689 13.1544 19.3008 13.3354 19.4366C13.6016 19.6363 13.879 19.8444 14.1431 20.03C14.1404 20.0339 14.1378 20.0377 14.1352 20.0416C14.1321 20.0462 14.129 20.0507 14.1257 20.0552C13.2771 21.2038 12.0676 21.7488 11.4236 21.2732Z" fill="#6DDFFF"/>
<path fill-rule="evenodd" clip-rule="evenodd" d="M4.30762 27.6924L6.89627 24.2571C7.03407 24.0743 7.29402 24.0377 7.47689 24.1755C7.65976 24.3133 7.69629 24.5733 7.55849 24.7561L4.96983 28.1914L4.30762 27.6924Z" fill="#6DDFFF"/>
<path fill-rule="evenodd" clip-rule="evenodd" d="M5.6792 28.7642L7.36026 26.5333C7.49806 26.3504 7.75801 26.3139 7.94088 26.4517C8.12374 26.5895 8.16028 26.8495 8.02248 27.0323L6.34142 29.2632L5.6792 28.7642Z" fill="#6DDFFF"/>
</g>
</svg>
