<svg width="32" height="32" viewBox="0 0 32 32" fill="none" xmlns="http://www.w3.org/2000/svg">
<path opacity="0.1" d="M16 32C24.8366 32 32 24.8366 32 16C32 7.16344 24.8366 0 16 0C7.16344 0 0 7.16344 0 16C0 24.8366 7.16344 32 16 32Z" fill="#3AB83A"/>
<mask id="mask0_158_2018" style="mask-type:alpha" maskUnits="userSpaceOnUse" x="0" y="0" width="32" height="32">
<path d="M16 32C24.8366 32 32 24.8366 32 16C32 7.16344 24.8366 0 16 0C7.16344 0 0 7.16344 0 16C0 24.8366 7.16344 32 16 32Z" fill="white"/>
</mask>
<g mask="url(#mask0_158_2018)">
<path fill-rule="evenodd" clip-rule="evenodd" d="M12.3076 15.1706L16.633 12.359L20.923 15.1881L16.6141 7.38477L12.3076 15.1706ZM12.4726 15.9827L16.6377 13.238L20.7486 15.9623L16.6401 18.7099L12.4726 15.9827ZM12.3076 16.7685C13.8256 17.764 15.4096 18.806 16.633 19.6122L20.923 16.7685C19.3696 19.618 18.0756 21.9902 16.633 24.6155L15.7484 23.0121L15.748 23.0114C14.5597 20.8575 13.3343 18.6364 12.3076 16.7685Z" fill="#3AB83A"/>
<path fill-rule="evenodd" clip-rule="evenodd" d="M16.6152 7.38477L16.6314 12.359L20.9229 15.1881L16.6152 7.38477ZM16.6354 13.238L20.7735 15.9623L16.6375 18.7099L16.6354 13.238ZM16.6314 19.6122L20.9229 16.7685C19.5918 19.618 16.6314 24.6155 16.6314 24.6155V19.6122Z" fill="#0B8311"/>
</g>
</svg>
