<svg width="32" height="32" viewBox="0 0 32 32" fill="none" xmlns="http://www.w3.org/2000/svg">
<path opacity="0.2" d="M31.52 19.8708C29.383 28.4423 20.701 33.6583 12.1285 31.5213C3.55999 29.3843 -1.65651 20.7023 0.480991 12.1313C2.61699 3.5588 11.2985 -1.6582 19.8685 0.478798C28.4405 2.6158 33.6565 11.2988 31.5195 19.8708H31.52Z" fill="#F7931A"/>
<path fill-rule="evenodd" clip-rule="evenodd" d="M20.8187 14.141C21.0344 12.6967 19.9347 11.9203 18.4311 11.4024L18.9189 9.44592L17.7276 9.14912L17.2527 11.054C16.94 10.976 16.6185 10.9024 16.2989 10.8295L16.7772 8.91203L15.587 8.61523L15.0989 10.571C14.8397 10.512 14.5853 10.4537 14.3384 10.3923L14.3398 10.3862L12.6974 9.97608L12.3806 11.248C12.3806 11.248 13.2642 11.4505 13.2455 11.4631C13.7279 11.5835 13.8154 11.9027 13.8004 12.1557L13.2448 14.3846C13.2781 14.393 13.3212 14.4053 13.3686 14.4242L13.2431 14.393L12.464 17.5153C12.405 17.6618 12.2554 17.8816 11.9183 17.7982C11.9301 17.8155 11.0526 17.5821 11.0526 17.5821L10.4614 18.9457L12.0115 19.332C12.1865 19.3759 12.3594 19.421 12.5304 19.4656L12.5304 19.4656L12.5308 19.4657C12.6414 19.4945 12.7511 19.5232 12.8602 19.5511L12.3673 21.5303L13.5569 21.8271L14.0453 19.8693C14.3699 19.9575 14.6854 20.0389 14.9941 20.1156L14.5077 22.0642L15.6986 22.361L16.1914 20.3859C18.2222 20.7702 19.7495 20.6152 20.3916 18.7788C20.9096 17.2999 20.3662 16.4469 19.2977 15.8902C20.0758 15.7101 20.662 15.1983 20.8183 14.141H20.8187ZM18.0973 17.9566C17.7592 19.3139 15.6342 18.7523 14.6628 18.4956C14.5758 18.4726 14.4981 18.452 14.4317 18.4355L15.0856 15.8139C15.1668 15.8342 15.2659 15.8564 15.3781 15.8816L15.3782 15.8816C16.3832 16.1071 18.4427 16.5693 18.0977 17.9566H18.0973ZM15.5802 14.6651C16.3907 14.8813 18.1576 15.3527 18.4654 14.1197C18.78 12.8582 17.062 12.478 16.2229 12.2923C16.1286 12.2715 16.0454 12.253 15.9774 12.2361L15.3845 14.6139C15.4406 14.6278 15.5064 14.6454 15.5802 14.6651Z" fill="#F7931A"/>
</svg>
