<svg width="610" height="352" viewBox="0 0 610 352" fill="none" xmlns="http://www.w3.org/2000/svg">
<g filter="url(#filter0_b_158_1786)">
<rect width="217.995" height="217.9" transform="matrix(0.86622 0.499663 -0.86622 0.499663 293.566 133.963)" fill="white" fill-opacity="0.11"/>
<rect y="0.499663" width="216.995" height="216.9" transform="matrix(0.86622 0.499663 -0.86622 0.499663 293.999 134.213)" stroke="url(#paint0_linear_158_1786)"/>
</g>
<g filter="url(#filter1_b_158_1786)">
<rect width="217.995" height="217.9" transform="matrix(0.86622 0.499663 -0.86622 0.499663 293.555 103.97)" fill="white" fill-opacity="0.11"/>
<rect y="0.499663" width="216.995" height="216.9" transform="matrix(0.86622 0.499663 -0.86622 0.499663 293.988 104.22)" stroke="url(#paint1_linear_158_1786)"/>
</g>
<g filter="url(#filter2_b_158_1786)">
<rect width="217.995" height="217.9" transform="matrix(0.86622 0.499663 -0.86622 0.499663 293.544 73.9783)" fill="white" fill-opacity="0.11"/>
<rect y="0.499663" width="216.995" height="216.9" transform="matrix(0.86622 0.499663 -0.86622 0.499663 293.977 74.2283)" stroke="url(#paint2_linear_158_1786)"/>
</g>
<g filter="url(#filter3_b_158_1786)">
<rect width="217.995" height="217.9" transform="matrix(0.86622 0.499663 -0.86622 0.499663 293.533 43.9856)" fill="white" fill-opacity="0.11"/>
<rect y="0.499663" width="216.995" height="216.9" transform="matrix(0.86622 0.499663 -0.86622 0.499663 293.966 44.2356)" stroke="url(#paint3_linear_158_1786)"/>
</g>
<rect width="135.157" height="135.098" transform="matrix(0.86622 0.499663 -0.86622 0.499663 410.586 54.4624)" fill="white" fill-opacity="0.11"/>
<rect width="135.157" height="135.098" transform="matrix(0.86622 0.499663 -0.86622 0.499663 410.586 54.4624)" fill="url(#paint4_linear_158_1786)"/>
<g filter="url(#filter4_b_158_1786)">
<rect width="217.995" height="217.9" transform="matrix(0.86622 0.499663 -0.86622 0.499663 293.521 13.0649)" fill="white" fill-opacity="0.11"/>
<rect y="0.499663" width="216.995" height="216.9" transform="matrix(0.86622 0.499663 -0.86622 0.499663 293.954 13.3149)" stroke="url(#paint5_linear_158_1786)"/>
</g>
<path d="M277.193 103.088L285.372 98.3695C298.909 90.5613 314.001 86.5756 334.458 98.3757C354.915 110.176 348.005 118.882 334.468 126.69L326.289 131.408" stroke="white" stroke-width="3" stroke-linecap="round" stroke-linejoin="round"/>
<path d="M273.123 157.356L232.21 133.755C215.844 124.315 215.842 119.596 232.201 110.16L240.38 105.442C256.738 96.0065 264.919 96.0075 281.284 105.448L322.198 129.048C338.563 138.488 338.565 143.207 322.207 152.643L314.028 157.361C297.669 166.797 289.488 166.796 273.123 157.356Z" stroke="white" stroke-width="3" stroke-linecap="round" stroke-linejoin="round"/>
<path d="M293.555 140.833L293.591 140.855" stroke="white" stroke-width="3" stroke-linecap="round" stroke-linejoin="round"/>
<path d="M277.185 131.391L277.222 131.412" stroke="white" stroke-width="3" stroke-linecap="round" stroke-linejoin="round"/>
<path d="M260.816 121.949L260.853 121.97" stroke="white" stroke-width="3" stroke-linecap="round" stroke-linejoin="round"/>
<defs>
<filter id="filter0_b_158_1786" x="-47.1826" y="-18.0374" width="681.581" height="521.801" filterUnits="userSpaceOnUse" color-interpolation-filters="sRGB">
<feFlood flood-opacity="0" result="BackgroundImageFix"/>
<feGaussianBlur in="BackgroundImage" stdDeviation="76"/>
<feComposite in2="SourceAlpha" operator="in" result="effect1_backgroundBlur_158_1786"/>
<feBlend mode="normal" in="SourceGraphic" in2="effect1_backgroundBlur_158_1786" result="shape"/>
</filter>
<filter id="filter1_b_158_1786" x="-47.1938" y="-48.0295" width="681.581" height="521.801" filterUnits="userSpaceOnUse" color-interpolation-filters="sRGB">
<feFlood flood-opacity="0" result="BackgroundImageFix"/>
<feGaussianBlur in="BackgroundImage" stdDeviation="76"/>
<feComposite in2="SourceAlpha" operator="in" result="effect1_backgroundBlur_158_1786"/>
<feBlend mode="normal" in="SourceGraphic" in2="effect1_backgroundBlur_158_1786" result="shape"/>
</filter>
<filter id="filter2_b_158_1786" x="-47.2051" y="-78.0217" width="681.581" height="521.801" filterUnits="userSpaceOnUse" color-interpolation-filters="sRGB">
<feFlood flood-opacity="0" result="BackgroundImageFix"/>
<feGaussianBlur in="BackgroundImage" stdDeviation="76"/>
<feComposite in2="SourceAlpha" operator="in" result="effect1_backgroundBlur_158_1786"/>
<feBlend mode="normal" in="SourceGraphic" in2="effect1_backgroundBlur_158_1786" result="shape"/>
</filter>
<filter id="filter3_b_158_1786" x="-47.2163" y="-108.014" width="681.581" height="521.801" filterUnits="userSpaceOnUse" color-interpolation-filters="sRGB">
<feFlood flood-opacity="0" result="BackgroundImageFix"/>
<feGaussianBlur in="BackgroundImage" stdDeviation="76"/>
<feComposite in2="SourceAlpha" operator="in" result="effect1_backgroundBlur_158_1786"/>
<feBlend mode="normal" in="SourceGraphic" in2="effect1_backgroundBlur_158_1786" result="shape"/>
</filter>
<filter id="filter4_b_158_1786" x="-47.228" y="-138.935" width="681.581" height="521.801" filterUnits="userSpaceOnUse" color-interpolation-filters="sRGB">
<feFlood flood-opacity="0" result="BackgroundImageFix"/>
<feGaussianBlur in="BackgroundImage" stdDeviation="76"/>
<feComposite in2="SourceAlpha" operator="in" result="effect1_backgroundBlur_158_1786"/>
<feBlend mode="normal" in="SourceGraphic" in2="effect1_backgroundBlur_158_1786" result="shape"/>
</filter>
<linearGradient id="paint0_linear_158_1786" x1="-37.7122" y1="-23.4449" x2="229.845" y2="222.613" gradientUnits="userSpaceOnUse">
<stop stop-color="white" stop-opacity="0.8"/>
<stop offset="1" stop-color="white" stop-opacity="0"/>
</linearGradient>
<linearGradient id="paint1_linear_158_1786" x1="-37.7122" y1="-23.4449" x2="229.845" y2="222.613" gradientUnits="userSpaceOnUse">
<stop stop-color="white" stop-opacity="0.8"/>
<stop offset="1" stop-color="white" stop-opacity="0"/>
</linearGradient>
<linearGradient id="paint2_linear_158_1786" x1="-37.7122" y1="-23.4449" x2="229.845" y2="222.613" gradientUnits="userSpaceOnUse">
<stop stop-color="white" stop-opacity="0.8"/>
<stop offset="1" stop-color="white" stop-opacity="0"/>
</linearGradient>
<linearGradient id="paint3_linear_158_1786" x1="-37.7122" y1="-23.4449" x2="229.845" y2="222.613" gradientUnits="userSpaceOnUse">
<stop stop-color="white" stop-opacity="0.8"/>
<stop offset="1" stop-color="white" stop-opacity="0"/>
</linearGradient>
<linearGradient id="paint4_linear_158_1786" x1="135.157" y1="67.5489" x2="6.91883e-07" y2="67.5489" gradientUnits="userSpaceOnUse">
<stop stop-color="#7164FF"/>
<stop offset="1" stop-color="#682DFE"/>
</linearGradient>
<linearGradient id="paint5_linear_158_1786" x1="-37.7122" y1="-23.4449" x2="229.845" y2="222.613" gradientUnits="userSpaceOnUse">
<stop stop-color="white" stop-opacity="0.8"/>
<stop offset="1" stop-color="white" stop-opacity="0"/>
</linearGradient>
</defs>
</svg>
