<svg width="125" height="24" viewBox="0 0 125 24" fill="none" xmlns="http://www.w3.org/2000/svg">
<path d="M0 14.3L2.07 13.85C2.154 14.174 2.298 14.462 2.502 14.714C2.946 15.278 3.522 15.56 4.23 15.56C4.962 15.56 5.532 15.338 5.94 14.894C6.36 14.45 6.57 13.802 6.57 12.95V4.39997H8.64V12.95C8.64 14.378 8.244 15.5 7.452 16.316C6.66 17.132 5.586 17.54 4.23 17.54C2.778 17.54 1.632 17 0.792 15.92C0.42 15.416 0.156 14.876 0 14.3Z" fill="white"/>
<path d="M10.9765 13.31V7.81997H12.8665V13.13C12.8665 13.934 13.0405 14.528 13.3885 14.912C13.7485 15.284 14.2945 15.47 15.0265 15.47C15.7585 15.47 16.3585 15.224 16.8265 14.732C17.3065 14.228 17.5465 13.574 17.5465 12.77V7.81997H19.4365V17H17.5465V15.74H17.4565C17.3125 15.98 17.0905 16.22 16.7905 16.46C16.1425 16.94 15.4045 17.18 14.5765 17.18C13.4365 17.18 12.5485 16.85 11.9125 16.19C11.2885 15.53 10.9765 14.57 10.9765 13.31Z" fill="white"/>
<path d="M20.9637 14.12H23.0337C23.1177 14.36 23.2677 14.588 23.4837 14.804C23.9277 15.248 24.5277 15.47 25.2837 15.47C25.9437 15.47 26.4237 15.368 26.7237 15.164C27.0237 14.96 27.1737 14.702 27.1737 14.39C27.1737 14.282 27.1497 14.186 27.1017 14.102C27.0537 14.006 26.9697 13.922 26.8497 13.85C26.7297 13.778 26.6157 13.718 26.5077 13.67C26.3997 13.61 26.2377 13.556 26.0217 13.508C25.8057 13.448 25.6317 13.406 25.4997 13.382C25.3677 13.346 25.1637 13.298 24.8877 13.238C24.6237 13.178 24.4257 13.136 24.2937 13.112C22.3737 12.68 21.4137 11.756 21.4137 10.34C21.4137 9.61997 21.7437 8.98997 22.4037 8.44997C23.0637 7.90997 23.9337 7.63997 25.0137 7.63997C26.5137 7.63997 27.6357 8.11997 28.3797 9.07997C28.7157 9.49997 28.9437 9.97997 29.0637 10.52H27.0837C26.9877 10.28 26.8557 10.088 26.6877 9.94397C26.2677 9.54797 25.7097 9.34997 25.0137 9.34997C24.4737 9.34997 24.0657 9.44597 23.7897 9.63797C23.5257 9.82997 23.3937 10.07 23.3937 10.358C23.3937 10.466 23.4177 10.568 23.4657 10.664C23.5137 10.748 23.5977 10.826 23.7177 10.898C23.8377 10.97 23.9517 11.03 24.0597 11.078C24.1797 11.126 24.3417 11.18 24.5457 11.24C24.7497 11.288 24.9237 11.33 25.0677 11.366C25.2117 11.39 25.4097 11.432 25.6617 11.492C25.9257 11.54 26.1297 11.582 26.2737 11.618C28.1937 12.05 29.1537 12.974 29.1537 14.39C29.1537 15.158 28.8057 15.818 28.1097 16.37C27.4257 16.91 26.4837 17.18 25.2837 17.18C23.7237 17.18 22.5297 16.67 21.7017 15.65C21.3297 15.182 21.0837 14.672 20.9637 14.12Z" fill="white"/>
<path d="M30.0495 9.52997V7.81997H31.1295V5.83997H33.0195V7.81997H35.8095V9.52997H33.0195V15.29H35.8995V17H31.1295V9.52997H30.0495Z" fill="white"/>
<path d="M37.6635 6.14597C37.4475 5.92997 37.3395 5.66597 37.3395 5.35397C37.3395 5.04197 37.4475 4.77797 37.6635 4.56197C37.8795 4.33397 38.1435 4.21997 38.4555 4.21997C38.7675 4.21997 39.0315 4.33397 39.2475 4.56197C39.4755 4.77797 39.5895 5.04197 39.5895 5.35397C39.5895 5.66597 39.4755 5.92997 39.2475 6.14597C39.0315 6.36197 38.7675 6.46997 38.4555 6.46997C38.1435 6.46997 37.8795 6.36197 37.6635 6.14597ZM37.5195 17V7.81997H39.4095V17H37.5195Z" fill="white"/>
<path d="M42.3364 15.83C41.4604 14.93 41.0224 13.79 41.0224 12.41C41.0224 11.03 41.4604 9.88997 42.3364 8.98997C43.2124 8.08997 44.3044 7.63997 45.6124 7.63997C47.0764 7.63997 48.2704 8.19797 49.1944 9.31397C49.5904 9.82997 49.8664 10.382 50.0224 10.97H48.0424C47.9584 10.67 47.8024 10.4 47.5744 10.16C47.1064 9.61997 46.4524 9.34997 45.6124 9.34997C44.8684 9.34997 44.2444 9.63197 43.7404 10.196C43.2484 10.76 43.0024 11.498 43.0024 12.41C43.0024 13.322 43.2484 14.06 43.7404 14.624C44.2444 15.188 44.8684 15.47 45.6124 15.47C46.4764 15.47 47.1544 15.2 47.6464 14.66C47.8624 14.42 48.0244 14.15 48.1324 13.85H50.0224C49.8664 14.462 49.5904 15.02 49.1944 15.524C48.2824 16.628 47.0884 17.18 45.6124 17.18C44.3044 17.18 43.2124 16.73 42.3364 15.83Z" fill="white"/>
<path d="M52.3568 15.812C51.4568 14.888 51.0068 13.754 51.0068 12.41C51.0068 11.066 51.4568 9.93797 52.3568 9.02597C53.2688 8.10197 54.3788 7.63997 55.6868 7.63997C56.9948 7.63997 58.0988 8.10197 58.9988 9.02597C59.9108 9.93797 60.3668 11.066 60.3668 12.41V13.04H52.8968C53.0408 13.796 53.3708 14.39 53.8868 14.822C54.4028 15.254 55.0028 15.47 55.6868 15.47C56.5268 15.47 57.1988 15.26 57.7028 14.84C57.9308 14.672 58.1288 14.462 58.2968 14.21H60.2768C60.0248 14.798 59.7068 15.296 59.3228 15.704C58.3388 16.688 57.1268 17.18 55.6868 17.18C54.3788 17.18 53.2688 16.724 52.3568 15.812ZM52.9868 11.51H58.3868C58.2788 10.91 57.9908 10.4 57.5228 9.97997C57.0668 9.55997 56.4548 9.34997 55.6868 9.34997C55.0388 9.34997 54.4628 9.54797 53.9588 9.94397C53.4548 10.328 53.1308 10.85 52.9868 11.51Z" fill="white"/>
<path fill-rule="evenodd" clip-rule="evenodd" d="M66.8275 12C67.0606 13.3497 67.6728 14.5064 68.664 15.47C69.96 16.73 71.562 17.36 73.47 17.36C75.606 17.36 77.298 16.55 78.546 14.93C79.11 14.246 79.548 13.436 79.86 12.5H77.79C77.574 13.052 77.268 13.532 76.872 13.94C75.984 14.9 74.85 15.38 73.47 15.38C72.114 15.38 71.01 14.948 70.158 14.084C69.589 13.5071 69.21 12.8124 69.021 12H72V10H68.9184C69.0404 8.92493 69.4536 8.03028 70.158 7.31604C71.01 6.45204 72.114 6.02004 73.47 6.02004C74.814 6.02004 75.924 6.45804 76.8 7.33404C77.184 7.71804 77.484 8.15004 77.7 8.63004H79.77C79.518 7.76604 79.122 7.00404 78.582 6.34404C77.358 4.80804 75.654 4.04004 73.47 4.04004C71.562 4.04004 69.96 4.67004 68.664 5.93004C67.5289 7.03357 66.8909 8.39022 66.75 10H64V12H66.8275ZM81.5643 7.82004V17H83.4543V12.05C83.4543 11.294 83.6883 10.688 84.1563 10.232C84.6363 9.76404 85.2423 9.53004 85.9743 9.53004H87.1443V7.73004H86.0643C85.3203 7.73004 84.6723 7.97004 84.1203 8.45004C83.8683 8.67804 83.6763 8.91804 83.5443 9.17004H83.4543V7.82004H81.5643ZM87.678 7.82004H89.658L91.638 15.2H92.628L94.788 7.82004H96.768L92.988 20.42H91.008L92.088 17H90.198L87.678 7.82004ZM97.7538 7.82004V20.42H99.6438V15.83H99.7338C99.9378 16.082 100.184 16.31 100.472 16.514C101.108 16.958 101.822 17.18 102.614 17.18C103.85 17.18 104.876 16.742 105.692 15.866C106.52 14.978 106.934 13.826 106.934 12.41C106.934 10.994 106.52 9.84804 105.692 8.97204C104.876 8.08404 103.85 7.64004 102.614 7.64004C101.834 7.64004 101.12 7.86804 100.472 8.32404C100.196 8.51604 99.9498 8.73804 99.7338 8.99004H99.6438V7.82004H97.7538ZM99.6438 12.41C99.6438 11.438 99.8778 10.688 100.346 10.16C100.826 9.62004 101.462 9.35004 102.254 9.35004C103.094 9.35004 103.754 9.61404 104.234 10.142C104.714 10.67 104.954 11.426 104.954 12.41C104.954 13.394 104.714 14.15 104.234 14.678C103.754 15.206 103.094 15.47 102.254 15.47C101.462 15.47 100.826 15.206 100.346 14.678C99.8778 14.138 99.6438 13.382 99.6438 12.41ZM107.827 9.53004V7.82004H108.907V5.84004H110.797V7.82004H113.587V9.53004H110.797V15.29H113.677V17H108.907V9.53004H107.827ZM114.757 12.41C114.757 13.754 115.213 14.888 116.125 15.812C117.049 16.724 118.183 17.18 119.527 17.18C120.871 17.18 121.999 16.724 122.911 15.812C123.835 14.888 124.297 13.754 124.297 12.41C124.297 11.066 123.835 9.93804 122.911 9.02604C121.999 8.10204 120.871 7.64004 119.527 7.64004C118.183 7.64004 117.049 8.10204 116.125 9.02604C115.213 9.93804 114.757 11.066 114.757 12.41ZM116.737 12.41C116.737 11.486 116.995 10.748 117.511 10.196C118.027 9.63204 118.699 9.35004 119.527 9.35004C120.355 9.35004 121.027 9.63204 121.543 10.196C122.059 10.748 122.317 11.486 122.317 12.41C122.317 13.334 122.059 14.078 121.543 14.642C121.027 15.194 120.355 15.47 119.527 15.47C118.699 15.47 118.027 15.194 117.511 14.642C116.995 14.078 116.737 13.334 116.737 12.41Z" fill="#8391FF"/>
</svg>
