<svg width="32" height="32" viewBox="0 0 32 32" fill="none" xmlns="http://www.w3.org/2000/svg">
<path opacity="0.2" d="M16 32C24.8366 32 32 24.8366 32 16C32 7.16344 24.8366 0 16 0C7.16344 0 0 7.16344 0 16C0 24.8366 7.16344 32 16 32Z" fill="#35B14F"/>
<path fill-rule="evenodd" clip-rule="evenodd" d="M11.0772 9.84619V17.0199C11.0772 17.0199 11.0387 23.7363 18.2394 23.3702C18.2394 23.3702 22.4638 17.4775 13.5157 11.9507C13.5157 11.9507 22.1758 14.4318 20.6205 23.3847C20.6205 23.3847 25.6896 20.1312 22.099 14.2566C22.099 14.2566 19.6411 10.0475 11.0772 9.84619Z" fill="#35B14F"/>
</svg>
