<svg width="32" height="32" viewBox="0 0 32 32" fill="none" xmlns="http://www.w3.org/2000/svg">
<path d="M16 32C24.8366 32 32 24.8366 32 16C32 7.16344 24.8366 0 16 0C7.16344 0 0 7.16344 0 16C0 24.8366 7.16344 32 16 32Z" fill="#0086B6"/>
<mask id="mask0_159_11798" style="mask-type:alpha" maskUnits="userSpaceOnUse" x="0" y="0" width="32" height="32">
<path d="M16 32C24.8366 32 32 24.8366 32 16C32 7.16344 24.8366 0 16 0C7.16344 0 0 7.16344 0 16C0 24.8366 7.16344 32 16 32Z" fill="white"/>
</mask>
<g mask="url(#mask0_159_11798)">
<path fill-rule="evenodd" clip-rule="evenodd" d="M9.14968 10.1886C11.1194 9.13819 13.6065 8.61375 16.6109 8.61524C19.6143 8.61524 22.1014 9.13968 24.0721 10.1886C24.4185 10.3731 24.6223 10.7244 24.5978 11.095L24.2013 17.0651C24.0324 19.5992 22.5805 21.9082 20.2889 23.2873L17.1826 25.1581C16.8347 25.3676 16.387 25.3676 16.039 25.1581L12.9329 23.2874C10.6413 21.9083 9.18941 19.5992 9.02049 17.0651L8.62405 11.095C8.59957 10.7244 8.80332 10.3731 9.14968 10.1886Z" stroke="white" stroke-width="0.5"/>
<path d="M9.23486 10.1917L16.2969 22.0553C16.3657 22.1708 16.4966 22.2423 16.6386 22.242C16.7805 22.2416 16.911 22.1695 16.9792 22.0537L23.9866 10.1333" stroke="white" stroke-width="0.5"/>
<path d="M9.77979 19.9526L16.4772 8.83421C16.5188 8.76517 16.5975 8.72263 16.6826 8.72315C16.7676 8.72367 16.8457 8.76717 16.8863 8.83671L23.4027 20.0016" stroke="white" stroke-width="0.5"/>
<path d="M20.6154 16.4429C21.0772 16.4429 21.4516 16.0682 21.4516 15.606C21.4516 15.1437 21.0772 14.769 20.6154 14.769C20.1537 14.769 19.7793 15.1437 19.7793 15.606C19.7793 16.0682 20.1537 16.4429 20.6154 16.4429Z" fill="white"/>
<path d="M16.6154 23.2119C17.0772 23.2119 17.4516 22.8372 17.4516 22.375C17.4516 21.9128 17.0772 21.5381 16.6154 21.5381C16.1536 21.5381 15.7793 21.9128 15.7793 22.375C15.7793 22.8372 16.1536 23.2119 16.6154 23.2119Z" fill="white"/>
<path d="M12.3078 16.4429C12.7696 16.4429 13.144 16.0682 13.144 15.606C13.144 15.1437 12.7696 14.769 12.3078 14.769C11.846 14.769 11.4717 15.1437 11.4717 15.606C11.4717 16.0682 11.846 16.4429 12.3078 16.4429Z" fill="white"/>
<path d="M16.6155 22.6152V24.7691" stroke="white" stroke-width="0.5" stroke-linecap="square"/>
<path d="M9.7583 19.9229C10.3339 20.0502 13.4264 21.9218 16.9048 22.7155L23.4726 19.9229" stroke="white" stroke-width="0.5"/>
</g>
</svg>
