<svg width="32" height="32" viewBox="0 0 32 32" fill="none" xmlns="http://www.w3.org/2000/svg">
<path opacity="0.2" d="M16 32C24.8366 32 32 24.8366 32 16C32 7.16344 24.8366 0 16 0C7.16344 0 0 7.16344 0 16C0 24.8366 7.16344 32 16 32Z" fill="white"/>
<path fill-rule="evenodd" clip-rule="evenodd" d="M25.5172 10.2845C25.4942 10.2716 25.4712 10.2586 25.4449 10.2424C24.5156 9.71758 23.5875 9.19159 22.6599 8.66586L22.659 8.66537L22.6582 8.66488L22.6573 8.66439L22.6558 8.66351L22.6552 8.66322L22.6525 8.66165L22.6447 8.65727C22.0581 8.32476 21.4716 7.99237 20.8851 7.66046C20.2801 7.31829 19.6755 6.97565 19.071 6.63308C18.0826 6.07287 17.0944 5.51283 16.105 4.95529L16.0491 4.92285L15.99 4.94556C15.8848 4.98448 15.8026 5.0234 15.7269 5.06557L15.7244 5.06702C14.3379 5.86771 12.9514 6.66839 11.5682 7.46584C10.9627 7.81585 10.3568 8.16545 9.75138 8.5148C8.63429 9.15936 7.51873 9.80304 6.41009 10.4467C6.19749 10.5435 6.20291 10.7623 6.20621 10.8955L6.20626 10.8976C6.20626 10.9071 6.20661 10.9169 6.20696 10.927C6.2077 10.9479 6.20848 10.9698 6.20626 10.9916C6.20297 13.5087 6.19968 16.0257 6.19311 18.5428L6.18653 21.3452C6.17338 21.5139 6.249 21.6566 6.37721 21.715C8.35253 22.8208 10.3278 23.9298 12.3032 25.0389L12.3034 25.039L12.3037 25.0392L12.3039 25.0393L12.3041 25.0394L12.3044 25.0396L12.3046 25.0397L15.7993 27.0021C15.8782 27.0507 15.9571 27.0767 16.0294 27.0767C16.0919 27.0767 16.1478 27.0572 16.1938 27.0216L21.2632 24.1412C21.8971 23.7814 22.5311 23.4209 23.1642 23.0609C23.9691 22.6031 24.7726 22.1462 25.5731 21.6923C25.7342 21.6209 25.8295 21.462 25.8098 21.3128L25.8262 10.7062C25.8493 10.4629 25.6421 10.3494 25.5172 10.2845ZM16.013 10.9527L20.1816 13.3465L16.0195 15.7143L14.6026 14.9229C14.1358 14.6618 13.669 14.4015 13.2021 14.1412L13.2017 14.1409C12.735 13.8807 12.2683 13.6205 11.8016 13.3595L16.013 10.9527ZM16.2234 10.424L20.7503 13.0221L24.9682 10.6219C24.4038 10.3013 23.8394 9.98163 23.275 9.66192L23.2747 9.66177L23.2744 9.66161L23.2742 9.66146L23.2719 9.66019L23.2708 9.65955L23.2707 9.65947C22.7056 9.33939 22.1405 9.0193 21.5755 8.69841C19.7213 7.65073 17.8704 6.60304 16.0195 5.54887C14.001 6.71008 11.9857 7.87129 9.97048 9.03575L7.06431 10.7127L11.2296 13.0351L15.8157 10.4143C15.9341 10.3364 16.0984 10.3364 16.2234 10.424ZM6.77829 11.1992L10.9239 13.5152L11.0093 18.6239C10.9995 18.7828 11.0784 18.9255 11.2033 18.9807C11.7641 19.3 12.3262 19.618 12.8887 19.9364C13.2462 20.1387 13.6039 20.3412 13.9615 20.5441L15.7302 21.5463L15.7269 26.3177L6.75856 21.2836L6.77829 11.1992ZM15.7368 16.2009L11.4992 13.8363L11.5781 18.546L15.7302 20.9009L15.7368 16.2009ZM16.3023 21.5496L18.0742 20.5473C18.5497 20.277 19.0261 20.0077 19.5034 19.7378L19.5044 19.7373L19.5056 19.7366C19.9384 19.4918 20.3719 19.2467 20.8062 19.0001L20.8325 18.9839C20.8818 18.9547 20.9475 18.9158 20.9936 18.8509L21.0199 18.8152V18.7731C21.01 17.6475 21.01 16.4993 21.0133 15.39C21.0133 15.1824 21.0137 14.9748 21.014 14.7672C21.0148 14.352 21.0155 13.9368 21.0133 13.5217L25.2542 11.1084L25.2476 15.2246L25.2378 21.235C24.0366 21.916 22.8354 22.5984 21.6334 23.2812L21.6321 23.2819L21.6154 23.2914C20.9285 23.6816 20.2413 24.072 19.5536 24.4623L16.2957 26.3145L16.3023 21.5496ZM16.3056 16.2009L16.3023 20.9041C17.6962 20.1127 19.0901 19.3245 20.4807 18.5395V13.8266L16.3056 16.2009Z" fill="white"/>
<path fill-rule="evenodd" clip-rule="evenodd" d="M15.8911 6.10343C15.7695 6.1164 15.661 6.19425 15.6051 6.30777C15.5492 6.42779 15.5558 6.55753 15.6248 6.65484C15.6906 6.75863 15.8122 6.82026 15.9437 6.82026C15.9667 6.82026 15.993 6.81702 16.0193 6.81378C16.1739 6.78783 16.2889 6.68403 16.3152 6.55104C16.3481 6.43427 16.3185 6.31102 16.2297 6.2202C16.1443 6.12613 16.0128 6.08072 15.8911 6.10343ZM16.1311 7.65063C16.0029 7.58251 15.8517 7.58575 15.7399 7.66036C15.6413 7.7155 15.5755 7.81929 15.5624 7.93931C15.5525 8.05932 15.6018 8.1696 15.6807 8.23123C15.7498 8.29611 15.8385 8.32854 15.9339 8.32854C15.9898 8.32854 16.0456 8.31557 16.0982 8.29286C16.2396 8.23123 16.3251 8.10473 16.3218 7.97174C16.3284 7.842 16.256 7.71874 16.1311 7.65063ZM15.7498 9.15891C15.8681 9.09079 16.0226 9.09403 16.1476 9.17188C16.2659 9.24648 16.3317 9.36974 16.3218 9.50273C16.3152 9.62923 16.233 9.73951 16.1015 9.7979C16.0489 9.8206 15.993 9.83358 15.9372 9.83358C15.8517 9.83358 15.7695 9.80763 15.7037 9.75573C15.6084 9.6941 15.5525 9.57084 15.5624 9.44434C15.5722 9.31784 15.6413 9.21405 15.7498 9.15891ZM10.0426 19.1071C9.9144 19.1427 9.81577 19.2465 9.78618 19.3828C9.75659 19.5222 9.80591 19.6617 9.90453 19.7363C9.967 19.7915 10.0459 19.8206 10.1281 19.8206C10.1544 19.8206 10.184 19.8174 10.2103 19.8109C10.3286 19.785 10.4273 19.7039 10.4634 19.6066C10.5259 19.4801 10.5029 19.3276 10.4009 19.2141C10.3089 19.1071 10.1708 19.0681 10.0426 19.1071ZM21.7396 19.8109C21.7068 19.8206 21.6772 19.8239 21.6476 19.8239C21.5621 19.8239 21.4799 19.7947 21.4208 19.7331C21.3254 19.6585 21.2761 19.5222 21.3024 19.3828C21.3287 19.2465 21.424 19.1395 21.549 19.1038C21.6772 19.0616 21.8185 19.1006 21.9172 19.2076C22.0191 19.3244 22.0454 19.4801 21.9796 19.6098C21.95 19.7006 21.858 19.7817 21.7396 19.8109ZM8.73417 19.8725C8.60267 19.918 8.51391 20.0347 8.50076 20.1807C8.48761 20.3299 8.55993 20.4694 8.675 20.5342C8.7276 20.5667 8.79006 20.5861 8.85252 20.5861C8.90512 20.5861 8.95444 20.5732 9.00704 20.5505C9.1221 20.4986 9.201 20.3948 9.21086 20.291C9.24045 20.1645 9.18785 20.0218 9.07936 19.9342C8.97745 19.8466 8.84923 19.8239 8.73417 19.8725ZM23.0514 20.5602C23.0086 20.5764 22.9659 20.5829 22.9232 20.5829C22.8443 20.5829 22.7654 20.5537 22.7029 20.505C22.6043 20.4304 22.5517 20.2942 22.5747 20.1547C22.5977 20.0185 22.6897 19.9115 22.8114 19.8693C22.9297 19.8239 23.0678 19.8531 23.1664 19.9439C23.2716 20.038 23.3144 20.1742 23.2782 20.3007C23.2651 20.4077 23.1763 20.5148 23.0514 20.5602ZM7.74791 20.6543C7.63614 20.5926 7.50792 20.5926 7.40272 20.6543C7.28766 20.7159 7.21533 20.8391 7.21533 20.9786C7.21533 21.1213 7.29423 21.2446 7.40601 21.2997C7.45532 21.3289 7.51121 21.3419 7.5671 21.3419C7.63285 21.3419 7.70189 21.3224 7.76435 21.2835C7.8827 21.2089 7.94845 21.0759 7.9353 20.9624C7.93859 20.8359 7.86626 20.7191 7.74791 20.6543ZM24.2053 21.3419C24.1264 21.3419 24.0508 21.3127 23.9916 21.2608C23.9028 21.2024 23.8469 21.0824 23.8535 20.9559C23.8601 20.8262 23.9291 20.7159 24.0343 20.6543C24.1461 20.5829 24.2875 20.5861 24.4025 20.664C24.5275 20.7451 24.5932 20.8878 24.5669 21.0273C24.5603 21.1408 24.4716 21.2576 24.3434 21.3127C24.2973 21.3322 24.2513 21.3419 24.2053 21.3419Z" fill="white"/>
</svg>
