<svg width="32" height="32" viewBox="0 0 32 32" fill="none" xmlns="http://www.w3.org/2000/svg">
<path opacity="0.2" d="M31.9132 16.0001C31.9132 24.7901 24.7877 31.9159 15.9977 31.9159C7.20769 31.9159 0.0820312 24.7901 0.0820312 16.0001C0.0820312 7.21013 7.20769 0.0844727 15.9977 0.0844727C24.7876 0.0844727 31.9132 7.21013 31.9132 16.0001Z" fill="#00A478"/>
<path d="M14.3658 15.7216V12.9372H10.5894V10.4966H21.1423V12.9716H17.3658V15.7216H14.3658Z" fill="#00A478"/>
<path fill-rule="evenodd" clip-rule="evenodd" d="M8.96582 16.0311C8.96582 15.1029 12.0011 14.3467 15.7776 14.3467C19.5541 14.3467 22.5893 15.1029 22.5893 16.0311C22.5893 16.9592 19.5541 17.7154 15.7776 17.7154C12.0011 17.7154 8.96582 16.9592 8.96582 16.0311ZM22.0246 16.0311C21.7776 15.6873 19.7305 14.6217 15.7776 14.6217C11.8246 14.6217 9.77758 15.6529 9.53053 16.0311C9.77758 16.3748 11.8246 16.8904 15.7776 16.8904C19.7658 16.8904 21.7776 16.3748 22.0246 16.0311Z" fill="#00A478"/>
<path d="M17.3656 16.5812V14.6562C16.8715 14.6218 16.3421 14.5874 15.8126 14.5874C15.3185 14.5874 14.8597 14.5874 14.4009 14.6218V16.5468C14.8244 16.5468 15.3185 16.5812 15.8126 16.5812C16.3421 16.6155 16.8715 16.6155 17.3656 16.5812Z" fill="#00A478"/>
<path d="M15.7775 17.7157C15.2834 17.7157 14.8245 17.7157 14.3657 17.6813V22.8032H17.3304V17.647C16.8363 17.6813 16.3069 17.7157 15.7775 17.7157Z" fill="#00A478"/>
</svg>
