<svg width="32" height="32" viewBox="0 0 32 32" fill="none" xmlns="http://www.w3.org/2000/svg">
<path opacity="0.2" d="M16 32C24.8366 32 32 24.8366 32 16C32 7.16344 24.8366 0 16 0C7.16344 0 0 7.16344 0 16C0 24.8366 7.16344 32 16 32Z" fill="#017F04"/>
<path d="M17.3614 18.4895L16.4959 15.8459L17.5773 14.4073L17.0693 12.8531L17.036 12.8281L15.9715 14.2442L14.5183 9.80513L11.6667 11.657L13.5604 17.4518L12.723 18.5659L13.2474 20.1676L14.0842 19.0544L15.2002 22.4696L22.7894 17.5411L22.0991 15.4129L17.3614 18.4895Z" fill="#017F04"/>
<path fill-rule="evenodd" clip-rule="evenodd" d="M15.9998 27.0767C22.1174 27.0767 27.0767 22.1174 27.0767 15.9998C27.0767 9.88216 22.1174 4.92285 15.9998 4.92285C9.88216 4.92285 4.92285 9.88216 4.92285 15.9998C4.92285 22.1174 9.88216 27.0767 15.9998 27.0767Z" stroke="#017F04"/>
</svg>
